<svg width="1024" height="1024" viewBox="0 0 1024 1024" fill="none" xmlns="http://www.w3.org/2000/svg">
<rect x="731.428" y="512" width="206.879" height="206.879" rx="103.44" transform="rotate(-45 731.428 512)" fill="white"/>
<rect x="548.572" y="329.143" width="206.879" height="206.879" rx="103.44" transform="rotate(-45 548.572 329.143)" fill="white"/>
<rect x="365.714" y="512" width="206.879" height="465.478" rx="103.44" transform="rotate(-45 365.714 512)" fill="white"/>
<path fill-rule="evenodd" clip-rule="evenodd" d="M59.888 568.916C63.6751 574.652 68.0933 580.093 73.1428 585.143C73.1428 585.143 73.1428 585.143 73.1429 585.143L438.857 950.857C479.253 991.253 544.747 991.253 585.143 950.857C625.539 910.461 625.539 844.967 585.143 804.572L292.571 512L585.143 219.429C625.539 179.033 625.539 113.539 585.143 73.1429C544.747 32.7472 479.253 32.7471 438.857 73.1428L73.179 438.821C73.1669 438.833 73.1549 438.845 73.1429 438.857C61.6428 450.357 53.4167 463.891 48.4644 478.301C38.1955 508.182 42.0033 541.829 59.888 568.916Z" fill="white"/>
</svg>
